<svg width="13" height="13" viewBox="0 0 13 13" fill="none" xmlns="http://www.w3.org/2000/svg">
<path d="M11.56 6.84351H8.1875C7.53166 6.84351 7 7.33599 7 7.94351V11.0565C7 11.664 7.53166 12.1565 8.1875 12.1565H11.56C12.2158 12.1565 12.7475 11.664 12.7475 11.0565V7.94351C12.7475 7.33599 12.2158 6.84351 11.56 6.84351Z" fill="white"/>
<path d="M4.56 6.84351H1.1875C0.531662 6.84351 0 7.33599 0 7.94351V11.0565C0 11.664 0.531662 12.1565 1.1875 12.1565H4.56C5.21584 12.1565 5.7475 11.664 5.7475 11.0565V7.94351C5.7475 7.33599 5.21584 6.84351 4.56 6.84351Z" fill="white"/>
<path d="M11.56 0.843506H8.1875C7.53166 0.843506 7 1.33599 7 1.94351V5.05651C7 5.66402 7.53166 6.15651 8.1875 6.15651H11.56C12.2158 6.15651 12.7475 5.66402 12.7475 5.05651V1.94351C12.7475 1.33599 12.2158 0.843506 11.56 0.843506Z" fill="white"/>
<path d="M4.56 0.843506H1.1875C0.531662 0.843506 0 1.33599 0 1.94351V5.05651C0 5.66402 0.531662 6.15651 1.1875 6.15651H4.56C5.21584 6.15651 5.7475 5.66402 5.7475 5.05651V1.94351C5.7475 1.33599 5.21584 0.843506 4.56 0.843506Z" fill="white"/>
</svg>
