<svg width="20" height="20" viewBox="0 0 20 20" fill="none" xmlns="http://www.w3.org/2000/svg">
<path d="M5 4.91418H5.001M1 9.08618V2.91418C1 2.38375 1.21071 1.87504 1.58579 1.49997C1.96086 1.1249 2.46957 0.914185 3 0.914185H9.172C9.70239 0.914298 10.211 1.12509 10.586 1.50018L18.586 9.50019C18.9609 9.87524 19.1716 10.3839 19.1716 10.9142C19.1716 11.4445 18.9609 11.9531 18.586 12.3282L12.414 18.5002C12.0389 18.8751 11.5303 19.0858 11 19.0858C10.4697 19.0858 9.96106 18.8751 9.586 18.5002L1.586 10.5002C1.2109 10.1252 1.00011 9.61657 1 9.08618V9.08618Z" stroke="white" stroke-width="1.2" stroke-linecap="round" stroke-linejoin="round"/>
</svg>
