<svg width="19" height="20" viewBox="0 0 19 20" fill="none" xmlns="http://www.w3.org/2000/svg">
<path d="M19 11.1837C19 11.137 19 11.0904 18.9604 11.0437C18.9604 10.9971 18.9208 10.9504 18.8813 10.9504C18.8813 10.9504 18.8813 10.9504 18.8813 10.9038C18.8417 10.8571 18.8021 10.8571 18.7625 10.8105L14.4479 8.57143V2.88047C14.4479 2.83382 14.4479 2.78717 14.4083 2.74052C14.4083 2.69388 14.3688 2.64723 14.3292 2.64723C14.3292 2.64723 14.3292 2.64723 14.3292 2.60058C14.2896 2.55394 14.25 2.55394 14.2104 2.50729L9.65833 0.0349854C9.53958 -0.0116618 9.42083 -0.0116618 9.34167 0.0349854L4.78958 2.41399C4.75 2.41399 4.71042 2.46064 4.67083 2.50729C4.67083 2.50729 4.67083 2.50729 4.63125 2.55394C4.59167 2.60058 4.59167 2.60058 4.55208 2.64723C4.55208 2.69388 4.5125 2.74052 4.5125 2.78717V8.43149L0.2375 10.7638C0.197917 10.7638 0.158333 10.8105 0.11875 10.8571C0.11875 10.8571 0.11875 10.8571 0.0791666 10.9038C0.0791666 10.9504 0.0791666 10.9504 0.0395833 10.9971C-3.83394e-08 11.0904 0 11.137 0 11.1837V17.1545C0 17.3411 0.0791666 17.5277 0.2375 17.5743L4.78958 19.9534C4.82917 20 4.90833 20 4.94792 20C4.9875 20 5.06667 20 5.10625 19.9534L9.5 17.6676L13.8938 19.9534C13.9333 20 14.0125 20 14.0521 20C14.0917 20 14.1708 20 14.2104 19.9534L18.7625 17.5743C18.9208 17.481 19 17.3411 19 17.1545V11.1837C19 11.2303 19 11.2303 19 11.1837ZM14.0521 13.0029L10.4896 11.1837L11.875 10.484L15.2396 12.4431L14.0521 13.0029ZM7.32292 2.13411L10.6875 4.09329L9.5 4.65306L5.9375 2.83382L7.32292 2.13411ZM13.6562 8.52478L9.975 10.4373L9.89583 10.484V5.49271L13.6562 3.58017V8.52478ZM9.10417 5.49271V10.484L9.025 10.4373L5.34375 8.52478V3.58017L9.10417 5.49271ZM4.94792 9.31778L5.42292 9.59767L6.175 9.97085L2.81042 11.93L1.34583 11.1837L4.94792 9.31778ZM7.125 10.484L8.51042 11.2303L4.94792 13.0496L3.8 12.4431L7.125 10.484ZM5.34375 13.8426L9.10417 11.93V16.8746L5.34375 18.8338V13.8426ZM16.1896 11.93L12.825 9.97085L13.5771 9.59767L14.0521 9.31778L17.6146 11.1837L16.1896 11.93ZM9.5 1.01458L13.0625 2.88047L11.5979 3.62682L8.27292 1.62099L9.5 1.01458ZM0.791667 11.93L4.55208 13.8426V18.8338L0.791667 16.8746V11.93ZM9.89583 11.93L13.6562 13.8426V18.8338L9.89583 16.8746V11.93ZM14.4479 18.8338V13.8426L18.2083 11.93V16.8746L14.4479 18.8338Z" fill="white"/>
</svg>
