<svg width="17" height="20" viewBox="0 0 17 20" fill="none" xmlns="http://www.w3.org/2000/svg">
<path d="M8.4024 1.17027C8.54389 0.967413 8.72567 0.795892 8.9364 0.666409C9.14712 0.536926 9.38227 0.452259 9.62717 0.417692C9.87208 0.383124 10.1215 0.399398 10.3598 0.465496C10.5981 0.531595 10.8203 0.646102 11.0124 0.80187L14.9364 3.98787C15.287 4.27239 15.5179 4.67828 15.5832 5.12506C15.6486 5.57184 15.5436 6.02685 15.2892 6.39987H13.8252L14.2932 5.72907C14.3803 5.60482 14.4171 5.45217 14.3962 5.30188C14.3752 5.15158 14.2981 5.01479 14.1804 4.91907L12.1596 3.27987L10.0044 6.39987H8.544L11.2248 2.52147L10.2552 1.73427C10.1912 1.68233 10.1172 1.64413 10.0377 1.62207C9.9583 1.6 9.87518 1.59454 9.79355 1.60603C9.71192 1.61751 9.63353 1.6457 9.56327 1.68882C9.49301 1.73194 9.4324 1.78908 9.3852 1.85667L6.216 6.39867H4.752L8.4024 1.17027ZM12.6 13.5999C12.4409 13.5999 12.2883 13.6631 12.1757 13.7756C12.0632 13.8881 12 14.0407 12 14.1999C12 14.359 12.0632 14.5116 12.1757 14.6241C12.2883 14.7367 12.4409 14.7999 12.6 14.7999H13.8C13.9591 14.7999 14.1117 14.7367 14.2243 14.6241C14.3368 14.5116 14.4 14.359 14.4 14.1999C14.4 14.0407 14.3368 13.8881 14.2243 13.7756C14.1117 13.6631 13.9591 13.5999 13.8 13.5999H12.6ZM1.8 5.19987H4.4028L3.5628 6.39987H1.8C1.64087 6.39987 1.48826 6.46308 1.37574 6.57561C1.26321 6.68813 1.2 6.84074 1.2 6.99987C1.2 7.159 1.26321 7.31161 1.37574 7.42413C1.48826 7.53666 1.64087 7.59987 1.8 7.59987H14.4C15.0365 7.59987 15.647 7.85273 16.0971 8.30281C16.5471 8.7529 16.8 9.36335 16.8 9.99987V17.1999C16.8 17.8364 16.5471 18.4468 16.0971 18.8969C15.647 19.347 15.0365 19.5999 14.4 19.5999H3C2.20435 19.5999 1.44129 19.2838 0.87868 18.7212C0.316071 18.1586 0 17.3955 0 16.5999V6.99987C0 6.52248 0.189642 6.06464 0.527208 5.72708C0.864773 5.38951 1.32261 5.19987 1.8 5.19987ZM1.2 16.5999C1.2 17.0773 1.38964 17.5351 1.72721 17.8727C2.06477 18.2102 2.52261 18.3999 3 18.3999H14.4C14.7183 18.3999 15.0235 18.2734 15.2485 18.0484C15.4736 17.8234 15.6 17.5181 15.6 17.1999V9.99987C15.6 9.68161 15.4736 9.37639 15.2485 9.15134C15.0235 8.9263 14.7183 8.79987 14.4 8.79987H1.8C1.59 8.79987 1.3872 8.76387 1.2 8.69787V16.5999Z" fill="white"/>
</svg>
