<svg width="32" height="32" viewBox="0 0 32 32" fill="none" xmlns="http://www.w3.org/2000/svg">
<circle cx="15.7368" cy="15.7368" r="15.7368" fill="#FFDB1C"/>
<path d="M16.8224 7.45455L16.5455 17.6392H13.946L13.6619 7.45455H16.8224ZM15.2457 22.1847C14.777 22.1847 14.3745 22.0189 14.0384 21.6875C13.7022 21.3513 13.5365 20.9489 13.5412 20.4801C13.5365 20.0161 13.7022 19.6184 14.0384 19.2869C14.3745 18.9555 14.777 18.7898 15.2457 18.7898C15.6955 18.7898 16.0909 18.9555 16.4318 19.2869C16.7727 19.6184 16.9455 20.0161 16.9503 20.4801C16.9455 20.7926 16.8627 21.0791 16.7017 21.3395C16.5455 21.5952 16.3395 21.8011 16.0838 21.9574C15.8281 22.1089 15.5488 22.1847 15.2457 22.1847Z" fill="white"/>
</svg>
