<svg width="53" height="54" viewBox="0 0 53 54" fill="none" xmlns="http://www.w3.org/2000/svg">
<path d="M53 26.9206C53 41.7885 41.1355 53.8413 26.5 53.8413C11.8645 53.8413 0 41.7885 0 26.9206C0 12.0528 11.8645 0 26.5 0C41.1355 0 53 12.0528 53 26.9206Z" fill="#5F89DB"/>
<path d="M33.1732 19C33.9676 19 34.7294 19.3161 35.291 19.8787C35.8527 20.4413 36.1683 21.2044 36.1683 22V31.6C36.1683 32.3956 35.8527 33.1587 35.291 33.7213C34.7294 34.2839 33.9676 34.6 33.1732 34.6H19.995C19.2007 34.6 18.4389 34.2839 17.8772 33.7213C17.3155 33.1587 17 32.3956 17 31.6V22C17 21.2044 17.3155 20.4413 17.8772 19.8787C18.4389 19.3161 19.2007 19 19.995 19H33.1732ZM34.9702 23.7532L26.8884 28.5172C26.812 28.5621 26.7266 28.5895 26.6384 28.5974C26.5501 28.6053 26.4612 28.5935 26.3781 28.5628L26.2798 28.5172L18.198 23.7556V31.6C18.198 32.0774 18.3873 32.5352 18.7244 32.8728C19.0614 33.2104 19.5184 33.4 19.995 33.4H33.1732C33.6498 33.4 34.1069 33.2104 34.4439 32.8728C34.7809 32.5352 34.9702 32.0774 34.9702 31.6V23.7532ZM33.1732 20.2H19.995C19.5184 20.2 19.0614 20.3896 18.7244 20.7272C18.3873 21.0648 18.198 21.5226 18.198 22V22.3624L26.5841 27.304L34.9702 22.36V22C34.9702 21.5226 34.7809 21.0648 34.4439 20.7272C34.1069 20.3896 33.6498 20.2 33.1732 20.2Z" fill="white"/>
</svg>
