<svg width="53" height="53" viewBox="0 0 53 53" fill="none" xmlns="http://www.w3.org/2000/svg">
<circle cx="26.5" cy="26.5" r="26.5" fill="#5F89DB"/>
<path d="M32.109 25C32.689 30.375 34.9702 32 34.9702 32H17C17 32 19.995 29.867 19.995 22.4C19.995 20.703 20.626 19.075 21.7491 17.875C22.8733 16.675 24.3978 16 25.9851 16C26.3216 16 26.656 16.03 26.9835 16.09M27.7123 35C27.5369 35.3033 27.2851 35.5552 26.9819 35.7302C26.6788 35.9053 26.335 35.9974 25.9851 35.9974C25.6352 35.9974 25.2914 35.9053 24.9883 35.7302C24.6852 35.5552 24.4333 35.3033 24.258 35M32.9736 22C33.7679 22 34.5297 21.6839 35.0914 21.1213C35.653 20.5587 35.9686 19.7956 35.9686 19C35.9686 18.2044 35.653 17.4413 35.0914 16.8787C34.5297 16.3161 33.7679 16 32.9736 16C32.1792 16 31.4174 16.3161 30.8557 16.8787C30.2941 17.4413 29.9785 18.2044 29.9785 19C29.9785 19.7956 30.2941 20.5587 30.8557 21.1213C31.4174 21.6839 32.1792 22 32.9736 22Z" stroke="white" stroke-width="1.2" stroke-linecap="round" stroke-linejoin="round"/>
</svg>
