<svg width="53" height="53" viewBox="0 0 53 53" fill="none" xmlns="http://www.w3.org/2000/svg">
<circle cx="26.5" cy="26.5" r="26.5" fill="#4D72F6"/>
<g filter="url(#filter0_d_443_17)">
<path d="M13.8398 26.998C13.8398 24.752 14.4095 22.9681 15.5488 21.6465C16.6882 20.3249 18.332 19.6641 20.4805 19.6641C21.7174 19.6641 22.7656 19.8561 23.625 20.2402C24.4844 20.6243 25.0898 21.181 25.4414 21.9102C25.6758 22.3919 25.6367 22.7174 25.3242 22.8867L24.1523 23.5117C23.7422 23.7331 23.4036 23.6094 23.1367 23.1406C22.9674 22.8411 22.6517 22.571 22.1895 22.3301C21.7337 22.0892 21.1966 21.9688 20.5781 21.9688C19.2109 21.9688 18.2539 22.4017 17.707 23.2676C17.1602 24.127 16.8867 25.3704 16.8867 26.998C16.8867 28.6257 17.1602 29.8724 17.707 30.7383C18.2539 31.5977 19.2109 32.0273 20.5781 32.0273C21.3138 32.0273 21.9323 31.8613 22.4336 31.5293C22.9414 31.1973 23.293 30.8815 23.4883 30.582C23.8073 30.0938 24.1458 29.9701 24.5039 30.2109L25.6758 30.9922C25.9948 31.207 26.0273 31.5326 25.7734 31.9688C25.3958 32.6198 24.748 33.1764 23.8301 33.6387C22.9121 34.1009 21.7956 34.332 20.4805 34.332C18.3646 34.332 16.7272 33.6712 15.5684 32.3496C14.416 31.028 13.8398 29.2441 13.8398 26.998ZM29.0938 34C28.638 34 28.4102 33.7559 28.4102 33.2676V20.7285C28.4102 20.2402 28.638 19.9961 29.0938 19.9961H36.8184C37.3066 19.9961 37.5508 20.2077 37.5508 20.6309V21.7832C37.5508 22.2064 37.3066 22.418 36.8184 22.418H31.2617V25.8164H36.0176C36.5059 25.8164 36.75 26.028 36.75 26.4512V27.6035C36.75 28.0267 36.5059 28.2383 36.0176 28.2383H31.2617V33.2676C31.2617 33.7559 31.0339 34 30.5781 34H29.0938Z" fill="white"/>
</g>
<defs>
<filter id="filter0_d_443_17" x="8.03984" y="13.8641" width="35.3109" height="26.268" filterUnits="userSpaceOnUse" color-interpolation-filters="sRGB">
<feFlood flood-opacity="0" result="BackgroundImageFix"/>
<feColorMatrix in="SourceAlpha" type="matrix" values="0 0 0 0 0 0 0 0 0 0 0 0 0 0 0 0 0 0 127 0" result="hardAlpha"/>
<feOffset/>
<feGaussianBlur stdDeviation="2.9"/>
<feComposite in2="hardAlpha" operator="out"/>
<feColorMatrix type="matrix" values="0 0 0 0 0.0568952 0 0 0 0 0.0509837 0 0 0 0 0.352474 0 0 0 1 0"/>
<feBlend mode="normal" in2="BackgroundImageFix" result="effect1_dropShadow_443_17"/>
<feBlend mode="normal" in="SourceGraphic" in2="effect1_dropShadow_443_17" result="shape"/>
</filter>
</defs>
</svg>
