<svg width="480" height="49" viewBox="0 0 480 49" fill="none" xmlns="http://www.w3.org/2000/svg">
<rect width="480" height="49" rx="10" fill="#5885D6"/>
<path d="M20.0114 29V17.3636H24.6023C25.4811 17.3636 26.2311 17.5208 26.8523 17.8352C27.4773 18.1458 27.9527 18.5871 28.2784 19.1591C28.608 19.7273 28.7727 20.3958 28.7727 21.1648C28.7727 21.9375 28.6061 22.6023 28.2727 23.1591C27.9394 23.7121 27.4564 24.1364 26.8239 24.4318C26.1951 24.7273 25.4337 24.875 24.5398 24.875H21.4659V22.8977H24.142C24.6117 22.8977 25.0019 22.8333 25.3125 22.7045C25.6231 22.5758 25.8542 22.3826 26.0057 22.125C26.161 21.8674 26.2386 21.5473 26.2386 21.1648C26.2386 20.7784 26.161 20.4527 26.0057 20.1875C25.8542 19.9223 25.6212 19.7216 25.3068 19.5852C24.9962 19.4451 24.6042 19.375 24.1307 19.375H22.4716V29H20.0114ZM26.2955 23.7045L29.1875 29H26.4716L23.642 23.7045H26.2955ZM34.3026 29.1705C33.4048 29.1705 32.6321 28.9886 31.9844 28.625C31.3404 28.2576 30.8442 27.7386 30.4957 27.0682C30.1473 26.3939 29.973 25.5966 29.973 24.6761C29.973 23.7784 30.1473 22.9905 30.4957 22.3125C30.8442 21.6345 31.3348 21.1061 31.9673 20.7273C32.6037 20.3485 33.3499 20.1591 34.206 20.1591C34.7817 20.1591 35.3177 20.2519 35.8139 20.4375C36.3139 20.6193 36.7495 20.8939 37.1207 21.2614C37.4957 21.6288 37.7874 22.0909 37.9957 22.6477C38.2041 23.2008 38.3082 23.8485 38.3082 24.5909V25.2557H30.9389V23.7557H36.0298C36.0298 23.4072 35.9541 23.0985 35.8026 22.8295C35.651 22.5606 35.4408 22.3504 35.1719 22.1989C34.9067 22.0436 34.598 21.9659 34.2457 21.9659C33.8783 21.9659 33.5526 22.0511 33.2685 22.2216C32.9882 22.3883 32.7685 22.6136 32.6094 22.8977C32.4503 23.178 32.3688 23.4905 32.3651 23.8352V25.2614C32.3651 25.6932 32.4446 26.0663 32.6037 26.3807C32.7666 26.6951 32.9957 26.9375 33.2912 27.108C33.5866 27.2784 33.937 27.3636 34.3423 27.3636C34.6113 27.3636 34.8575 27.3258 35.081 27.25C35.3045 27.1742 35.4957 27.0606 35.6548 26.9091C35.8139 26.7576 35.9351 26.572 36.0185 26.3523L38.2571 26.5C38.1435 27.0379 37.9105 27.5076 37.5582 27.9091C37.2098 28.3068 36.759 28.6174 36.206 28.8409C35.6567 29.0606 35.0223 29.1705 34.3026 29.1705ZM47.1491 22.7614L44.9332 22.8977C44.8954 22.7083 44.8139 22.5379 44.6889 22.3864C44.5639 22.2311 44.3991 22.108 44.1946 22.017C43.9938 21.9223 43.7533 21.875 43.473 21.875C43.098 21.875 42.7817 21.9545 42.5241 22.1136C42.2666 22.2689 42.1378 22.4773 42.1378 22.7386C42.1378 22.947 42.2211 23.1231 42.3878 23.267C42.5545 23.411 42.8404 23.5265 43.2457 23.6136L44.8253 23.9318C45.6738 24.1061 46.3063 24.3864 46.723 24.7727C47.1397 25.1591 47.348 25.6667 47.348 26.2955C47.348 26.8674 47.1795 27.3693 46.8423 27.8011C46.509 28.233 46.0507 28.5701 45.4673 28.8125C44.8878 29.0511 44.2192 29.1705 43.4616 29.1705C42.3063 29.1705 41.3859 28.9299 40.7003 28.4489C40.0185 27.964 39.6188 27.3049 39.5014 26.4716L41.8821 26.3466C41.9541 26.6989 42.1283 26.9678 42.4048 27.1534C42.6813 27.3352 43.0355 27.4261 43.4673 27.4261C43.8916 27.4261 44.2325 27.3447 44.4901 27.1818C44.7514 27.0152 44.884 26.8011 44.8878 26.5398C44.884 26.3201 44.7912 26.1402 44.6094 26C44.4276 25.8561 44.1473 25.7462 43.7685 25.6705L42.2571 25.3693C41.4048 25.1989 40.7704 24.9034 40.3537 24.483C39.9408 24.0625 39.7344 23.5265 39.7344 22.875C39.7344 22.3144 39.8859 21.8314 40.1889 21.4261C40.4957 21.0208 40.9257 20.7083 41.4787 20.4886C42.0355 20.2689 42.687 20.1591 43.4332 20.1591C44.5355 20.1591 45.4029 20.392 46.0355 20.858C46.6719 21.3239 47.0431 21.9583 47.1491 22.7614ZM52.8494 29.1705C51.9517 29.1705 51.179 28.9886 50.5312 28.625C49.8873 28.2576 49.3911 27.7386 49.0426 27.0682C48.6941 26.3939 48.5199 25.5966 48.5199 24.6761C48.5199 23.7784 48.6941 22.9905 49.0426 22.3125C49.3911 21.6345 49.8816 21.1061 50.5142 20.7273C51.1506 20.3485 51.8968 20.1591 52.7528 20.1591C53.3286 20.1591 53.8646 20.2519 54.3608 20.4375C54.8608 20.6193 55.2964 20.8939 55.6676 21.2614C56.0426 21.6288 56.3343 22.0909 56.5426 22.6477C56.7509 23.2008 56.8551 23.8485 56.8551 24.5909V25.2557H49.4858V23.7557H54.5767C54.5767 23.4072 54.5009 23.0985 54.3494 22.8295C54.1979 22.5606 53.9877 22.3504 53.7188 22.1989C53.4536 22.0436 53.1449 21.9659 52.7926 21.9659C52.4252 21.9659 52.0994 22.0511 51.8153 22.2216C51.535 22.3883 51.3153 22.6136 51.1562 22.8977C50.9972 23.178 50.9157 23.4905 50.9119 23.8352V25.2614C50.9119 25.6932 50.9915 26.0663 51.1506 26.3807C51.3134 26.6951 51.5426 26.9375 51.8381 27.108C52.1335 27.2784 52.4839 27.3636 52.8892 27.3636C53.1581 27.3636 53.4044 27.3258 53.6278 27.25C53.8513 27.1742 54.0426 27.0606 54.2017 26.9091C54.3608 26.7576 54.482 26.572 54.5653 26.3523L56.804 26.5C56.6903 27.0379 56.4574 27.5076 56.1051 27.9091C55.7566 28.3068 55.3059 28.6174 54.7528 28.8409C54.2036 29.0606 53.5691 29.1705 52.8494 29.1705ZM60.9233 29.1648C60.3665 29.1648 59.8703 29.0682 59.4347 28.875C58.9991 28.678 58.6544 28.3883 58.4006 28.0057C58.1506 27.6193 58.0256 27.1383 58.0256 26.5625C58.0256 26.0777 58.1146 25.6705 58.2926 25.3409C58.4706 25.0114 58.7131 24.7462 59.0199 24.5455C59.3267 24.3447 59.6752 24.1932 60.0653 24.0909C60.4593 23.9886 60.8722 23.9167 61.304 23.875C61.8116 23.822 62.2206 23.7727 62.5312 23.7273C62.8419 23.678 63.0672 23.6061 63.2074 23.5114C63.3475 23.4167 63.4176 23.2765 63.4176 23.0909V23.0568C63.4176 22.697 63.304 22.4186 63.0767 22.2216C62.8532 22.0246 62.535 21.9261 62.1222 21.9261C61.6866 21.9261 61.34 22.0227 61.0824 22.2159C60.8248 22.4053 60.6544 22.6439 60.571 22.9318L58.3324 22.75C58.446 22.2197 58.6695 21.7614 59.0028 21.375C59.3362 20.9848 59.7661 20.6856 60.2926 20.4773C60.8229 20.2652 61.4366 20.1591 62.1335 20.1591C62.6184 20.1591 63.0824 20.2159 63.5256 20.3295C63.9725 20.4432 64.3684 20.6193 64.7131 20.858C65.0616 21.0966 65.3362 21.4034 65.5369 21.7784C65.7377 22.1496 65.8381 22.5947 65.8381 23.1136V29H63.5426V27.7898H63.4744C63.3343 28.0625 63.1468 28.303 62.9119 28.5114C62.6771 28.7159 62.3949 28.8769 62.0653 28.9943C61.7358 29.108 61.3551 29.1648 60.9233 29.1648ZM61.6165 27.4943C61.9725 27.4943 62.2869 27.4242 62.5597 27.2841C62.8324 27.1402 63.0464 26.947 63.2017 26.7045C63.357 26.4621 63.4347 26.1875 63.4347 25.8807V24.9545C63.3589 25.0038 63.2547 25.0492 63.1222 25.0909C62.9934 25.1288 62.8475 25.1648 62.6847 25.1989C62.5218 25.2292 62.3589 25.2576 62.196 25.2841C62.0331 25.3068 61.8854 25.3277 61.7528 25.3466C61.4688 25.3883 61.2206 25.4545 61.0085 25.5455C60.7964 25.6364 60.6316 25.7595 60.5142 25.9148C60.3968 26.0663 60.3381 26.2557 60.3381 26.483C60.3381 26.8125 60.4574 27.0644 60.696 27.2386C60.9384 27.4091 61.2453 27.4943 61.6165 27.4943ZM67.7159 29V20.2727H70.0625V21.7955H70.1534C70.3125 21.2538 70.5795 20.8447 70.9545 20.5682C71.3295 20.2879 71.7614 20.1477 72.25 20.1477C72.3712 20.1477 72.5019 20.1553 72.642 20.1705C72.7822 20.1856 72.9053 20.2064 73.0114 20.233V22.3807C72.8977 22.3466 72.7405 22.3163 72.5398 22.2898C72.339 22.2633 72.1553 22.25 71.9886 22.25C71.6326 22.25 71.3144 22.3277 71.0341 22.483C70.7576 22.6345 70.5379 22.8466 70.375 23.1193C70.2159 23.392 70.1364 23.7064 70.1364 24.0625V29H67.7159ZM77.7997 29.1705C76.9058 29.1705 76.1368 28.9811 75.4929 28.6023C74.8527 28.2197 74.3603 27.6894 74.0156 27.0114C73.6747 26.3333 73.5043 25.553 73.5043 24.6705C73.5043 23.7765 73.6766 22.9924 74.0213 22.3182C74.3698 21.6402 74.8641 21.1117 75.5043 20.733C76.1444 20.3504 76.9058 20.1591 77.7884 20.1591C78.5497 20.1591 79.2164 20.2973 79.7884 20.5739C80.3603 20.8504 80.813 21.2386 81.1463 21.7386C81.4796 22.2386 81.6634 22.8258 81.6974 23.5H79.4134C79.349 23.0644 79.1785 22.714 78.902 22.4489C78.6293 22.1799 78.2713 22.0455 77.8281 22.0455C77.4531 22.0455 77.1255 22.1477 76.8452 22.3523C76.5687 22.553 76.3527 22.8466 76.1974 23.233C76.0421 23.6193 75.9645 24.0871 75.9645 24.6364C75.9645 25.1932 76.0402 25.6667 76.1918 26.0568C76.3471 26.447 76.5649 26.7443 76.8452 26.9489C77.1255 27.1534 77.4531 27.2557 77.8281 27.2557C78.1046 27.2557 78.3527 27.1989 78.5724 27.0852C78.7959 26.9716 78.9796 26.8068 79.1236 26.5909C79.2713 26.3712 79.3679 26.108 79.4134 25.8011H81.6974C81.6596 26.4678 81.4777 27.0549 81.152 27.5625C80.83 28.0663 80.3849 28.4602 79.8168 28.7443C79.2486 29.0284 78.5762 29.1705 77.7997 29.1705ZM85.6676 23.9545V29H83.2472V17.3636H85.5994V21.8125H85.7017C85.8987 21.2973 86.2169 20.8939 86.6562 20.6023C87.0956 20.3068 87.6468 20.1591 88.3097 20.1591C88.9157 20.1591 89.4441 20.2917 89.8949 20.5568C90.3494 20.8182 90.7017 21.1951 90.9517 21.6875C91.2055 22.1761 91.3305 22.7614 91.3267 23.4432V29H88.9062V23.875C88.91 23.3371 88.7737 22.9186 88.4972 22.6193C88.2244 22.3201 87.8419 22.1705 87.3494 22.1705C87.0199 22.1705 86.7282 22.2405 86.4744 22.3807C86.2244 22.5208 86.0275 22.7254 85.8835 22.9943C85.7434 23.2595 85.6714 23.5795 85.6676 23.9545Z" fill="#EEF2F5"/>
<path fill-rule="evenodd" clip-rule="evenodd" d="M447.874 26.9274C446.956 27.6282 445.832 28.0403 444.619 28.0403C441.516 28.0403 439 25.345 439 22.0202C439 18.6953 441.516 16 444.619 16C447.722 16 450.238 18.6953 450.238 22.0202C450.238 23.3204 449.853 24.5243 449.199 25.5084L452.726 29.2871C453.091 29.679 453.091 30.3143 452.726 30.7061C452.36 31.098 451.767 31.098 451.401 30.7061L447.874 26.9274ZM448.365 22.0202C448.365 24.2368 446.688 26.0336 444.619 26.0336C442.55 26.0336 440.873 24.2368 440.873 22.0202C440.873 19.8036 442.55 18.0067 444.619 18.0067C446.688 18.0067 448.365 19.8036 448.365 22.0202Z" fill="#EEF2F5"/>
</svg>
