<svg width="429" height="160" viewBox="0 0 429 160" fill="none" xmlns="http://www.w3.org/2000/svg">
<g clip-path="url(#clip0_785_864)">
<rect width="429" height="160" rx="10" fill="#C4DEF6"/>
<path d="M491 89.3184C491 88.9709 491 88.6233 490.704 88.2758C490.704 87.9283 490.408 87.5808 490.113 87.5808C490.113 87.5808 490.113 87.5808 490.113 87.2332C489.817 86.8857 489.521 86.8857 489.225 86.5382L456.979 69.8571V27.4595C456.979 27.1119 456.979 26.7644 456.683 26.4169C456.683 26.0694 456.387 25.7219 456.092 25.7219C456.092 25.7219 456.092 25.7219 456.092 25.3743C455.796 25.0268 455.5 25.0268 455.204 24.6793L421.183 6.26064C420.296 5.91312 419.408 5.91312 418.817 6.26064L384.796 23.9843C384.5 23.9843 384.204 24.3318 383.908 24.6793C383.908 24.6793 383.908 24.6793 383.613 25.0268C383.317 25.3743 383.317 25.3743 383.021 25.7219C383.021 26.0694 382.725 26.4169 382.725 26.7644V68.8146L350.775 86.1907C350.479 86.1907 350.183 86.5382 349.888 86.8857C349.888 86.8857 349.887 86.8857 349.592 87.2332C349.592 87.5808 349.592 87.5808 349.296 87.9283C349 88.6233 349 88.9709 349 89.3184V133.801C349 135.191 349.592 136.581 350.775 136.929L384.796 154.652C385.092 155 385.683 155 385.979 155C386.275 155 386.867 155 387.162 154.652L420 137.624L452.837 154.652C453.133 155 453.725 155 454.021 155C454.317 155 454.908 155 455.204 154.652L489.225 136.929C490.408 136.234 491 135.191 491 133.801V89.3184C491 89.6659 491 89.6659 491 89.3184ZM454.021 102.872L427.396 89.3184L437.75 84.1055L462.896 98.7015L454.021 102.872ZM403.729 21.8991L428.875 36.495L420 40.6653L393.375 27.112L403.729 21.8991ZM451.062 69.5096L423.55 83.758L422.958 84.1055V46.9207L451.062 32.6723V69.5096ZM417.042 46.9207V84.1055L416.45 83.758L388.938 69.5096V32.6723L417.042 46.9207ZM385.979 75.4175L389.529 77.5026L395.15 80.2828L370.004 94.8787L359.058 89.3184L385.979 75.4175ZM402.25 84.1055L412.604 89.6659L385.979 103.219L377.4 98.7015L402.25 84.1055ZM388.938 109.127L417.042 94.8787V131.716L388.938 146.312V109.127ZM469.996 94.8787L444.85 80.2828L450.471 77.5026L454.021 75.4175L480.646 89.3184L469.996 94.8787ZM420 13.5586L446.625 27.4595L435.679 33.0198L410.829 18.0764L420 13.5586ZM354.917 94.8787L383.021 109.127V146.312L354.917 131.716V94.8787ZM422.958 94.8787L451.062 109.127V146.312L422.958 131.716V94.8787ZM456.979 146.312V109.127L485.083 94.8787V131.716L456.979 146.312Z" fill="#5885D6"/>
</g>
<defs>
<clipPath id="clip0_785_864">
<rect width="429" height="160" rx="10" fill="white"/>
</clipPath>
</defs>
</svg>
